<?xml version="1.0" encoding="UTF-8" standalone="no"?>
<svg
   xmlns:dc="http://purl.org/dc/elements/1.1/"
   xmlns:cc="http://creativecommons.org/ns#"
   xmlns:rdf="http://www.w3.org/1999/02/22-rdf-syntax-ns#"
   xmlns:svg="http://www.w3.org/2000/svg"
   xmlns="http://www.w3.org/2000/svg"
   xmlns:sodipodi="http://sodipodi.sourceforge.net/DTD/sodipodi-0.dtd"
   xmlns:inkscape="http://www.inkscape.org/namespaces/inkscape"
   width="350"
   height="200"
   viewBox="0 0 92.604164 52.91667"
   version="1.1"
   id="svg1059"
   inkscape:version="1.0.2-2 (e86c870879, 2021-01-15)"
   sodipodi:docname="logo.svg">
  <defs
     id="defs1053">
    <rect
       x="27.214287"
       y="65.76786"
       width="147.41071"
       height="86.934525"
       id="rect12-7-7" />
    <rect
       x="27.214287"
       y="65.76786"
       width="147.41071"
       height="86.934525"
       id="rect1631" />
  </defs>
  <sodipodi:namedview
     id="base"
     pagecolor="#ffffff"
     bordercolor="#666666"
     borderopacity="1.0"
     inkscape:pageopacity="0.0"
     inkscape:pageshadow="2"
     inkscape:zoom="1.4"
     inkscape:cx="284.12506"
     inkscape:cy="248.46197"
     inkscape:document-units="mm"
     inkscape:current-layer="layer1"
     inkscape:document-rotation="0"
     showgrid="false"
     inkscape:snap-page="false"
     units="px"
     width="350px"
     showguides="true"
     inkscape:guide-bbox="true"
     inkscape:window-width="1920"
     inkscape:window-height="1017"
     inkscape:window-x="-8"
     inkscape:window-y="-8"
     inkscape:window-maximized="1">
    <sodipodi:guide
       position="41.955356,27.97024"
       orientation="0,-1"
       id="guide1691" />
  </sodipodi:namedview>
  <metadata
     id="metadata1056">
    <rdf:RDF>
      <cc:Work
         rdf:about="">
        <dc:format>image/svg+xml</dc:format>
        <dc:type
           rdf:resource="http://purl.org/dc/dcmitype/StillImage" />
        <dc:title></dc:title>
      </cc:Work>
    </rdf:RDF>
  </metadata>
  <g
     inkscape:label="Layer 1"
     inkscape:groupmode="layer"
     id="layer1">
    <g
       id="g1027"
       transform="translate(-7.6242112,-185.1004)">
      <text
         xml:space="preserve"
         id="text10-7-7"
         style="font-size:10.5833px;line-height:1.25;font-family:BlackChancery;-inkscape-font-specification:BlackChancery;word-spacing:0px;white-space:pre;shape-inside:url(#rect12-7-7);fill:#102255;fill-opacity:1;"
         transform="matrix(1.9043435,0,0,1.9043435,-23.695908,73.789651)"><tspan
           x="27.214844"
           y="75.421026"><tspan
             style="font-style:normal;font-variant:normal;font-weight:normal;font-stretch:normal;font-family:TypoGraphica;-inkscape-font-specification:TypoGraphica;fill:#102255;fill-opacity:1">FittApp</tspan></tspan></text>
      <g
         id="g898-5-5"
         transform="matrix(0,0.84297051,-0.84297051,0,97.565092,104.87239)">
        <path
           id="path1005-27-3"
           style="fill:#1f1c24;fill-opacity:1;stroke:#000000;stroke-width:0;stroke-linecap:round;stroke-linejoin:round;stroke-miterlimit:4;stroke-dasharray:none;stroke-dashoffset:18.8976;stroke-opacity:1;paint-order:fill markers stroke"
           d="m 113.85509,84.058292 a 5.8799295,9.3544331 0 0 0 -1.63091,0.368451 5.8799295,9.3544331 0 0 1 4.57181,8.983948 l 2.94091,-0.0021 a 5.8799295,9.3544331 0 0 0 -5.88181,-9.350333 z m 2.9409,9.354466 a 5.8799295,9.3544331 0 0 1 10e-4,0.129709 l -5.88026,0.0041 h 5.88026 a 5.8799295,9.3544331 0 0 1 -4.24729,8.986533 5.8799295,9.3544331 0 0 0 1.30793,0.2341 5.8799295,9.3544331 0 0 0 5.87923,-9.354475 z" />
        <rect
           style="fill:#1f1c24;fill-opacity:1;stroke-width:2.47332;stroke-linecap:round;stroke-linejoin:round;stroke-dashoffset:18.8976;paint-order:fill markers stroke"
           id="rect1050-9-9"
           width="14.423038"
           height="2.8731565"
           x="117.33144"
           y="91.875923" />
        <ellipse
           style="fill:#ccaaff;stroke-width:1.06928;stroke-linecap:round;stroke-linejoin:round;stroke-dashoffset:18.8976;paint-order:fill markers stroke"
           id="path1027-3-4-8"
           cx="111.73067"
           cy="93.501854"
           rx="4.2436934"
           ry="8.3863468" />
        <g
           id="g886-9-3"
           transform="translate(-1.8734722,0.14931113)">
          <path
             id="path1005-1-1-0"
             style="fill:#1f1c24;fill-opacity:1;stroke-width:2.89999;stroke-linecap:round;stroke-linejoin:round;stroke-dashoffset:18.8976;paint-order:fill markers stroke"
             d="m 138.84827,83.922416 a 5.8799295,9.3544331 0 0 1 1.63091,0.368451 5.8799295,9.3544331 0 0 0 -4.57181,8.983948 l -2.94091,-0.0021 a 5.8799295,9.3544331 0 0 1 5.88181,-9.350333 z m -2.9409,9.354466 a 5.8799295,9.3544331 0 0 0 -10e-4,0.129709 l 5.88026,0.0041 h -5.88026 a 5.8799295,9.3544331 0 0 0 4.24729,8.986529 5.8799295,9.3544331 0 0 1 -1.30793,0.2341 5.8799295,9.3544331 0 0 1 -5.87923,-9.354471 z" />
          <ellipse
             style="fill:#ccaaff;stroke-width:1.06928;stroke-linecap:round;stroke-linejoin:round;stroke-dashoffset:18.8976;paint-order:fill markers stroke"
             id="path1027-3-5-8-7"
             cx="141.00804"
             cy="93.454605"
             rx="4.2436934"
             ry="8.3863468" />
        </g>
      </g>
    </g>
  </g>
</svg>
