<?xml version="1.0" encoding="UTF-8"?>
<svg version="1.1" viewBox="0 0 600 976" xmlns="http://www.w3.org/2000/svg">
 <rect width="600" height="976" fill="#fff"/>
 <g fill="#050502">
  <path d="m295.84 69.365q29.617-4.0017 46.478 17.599 3.3368 4.9454 3.4718 8.1502-0.75543 28.261-1.6 28.927-1.1702 2.5015 6.0131 0.66589 0.59311-0.4544 0.52754 4.012-1.9568 14.572-4.1343 19.437-1.0173 2.0262-6.636 1.228 1.1926 6.4662 0.724 10.935 0.3867 8.8752-2.8265 15.259-0.21984 3.5913 0.7481 5.7678 2.4345-1.8211 15.281 1.0881l21.637 9.445 40.488 10.647 9.6056 16.9q1.883 3.3224 6.0318 29.394 0.29981 2.7321 5.3147 14.54 1.1234 9.0108 2.079 11.286 3.0115 10.962 11.059 22.321 1.1858 2.7762 1.9942 9.8341 1.6862 16.931 2.3271 55.123 0.34033 8.8682-2.2333 35.09l2.4332 18.151-2.8843 9.6463q8.1193 33.756 7.1573 38.484 0.04736 6.9351-5.1892 28.624l-9.0853-4.8172q1.0595-1.263 1.8217-13.141-2.412 7.3914-7.2338 0.52621l2.7665-17.876-5.6467-17.666-5.6171-7.5937-11.16 3.8557-2.3483-4.453 5.1515-15.18q2.3609-2.7752 5.9456-5.1109l0.77277-7.4368-0.84325-14.388-8.035-27.365q-0.01593-9.2611-4.1305-18.744l-4.5396-41.894-13.46-20.179q-5.3683 9.5794-6.549 30.977-0.29236 42.427 0.27637 58.742l7.3393 14.693 1.3372 19.061 5.1057 19.541q2.6604 34.517 1.0882 46.877l1.4393 22.468-3.685 61.052 0.22614 22.857-6.7316 18.919 2.5113 6.4297q0.76283 8.9942-0.30916 21.053l-8.2108 5.2451-0.3753 8.0829 2.5038 28.492 11.987 32.092 0.60184 17.62-4.7883 41.865-10.703 49.954-4.7875 33.152 1.6849 8.0837-2.1383 15.115-5.1605 17.229 4.7803 10.187-1.1357 12.39q-1.7596 2.4255-19.052-5.6015-18.344 0.58624-31.028-1.5218-0.6537-3.2162 2.8239-16.725l3.4487-8.4288 7.6614-28.256 7.088-18.711 0.06505-43.921q-3.3976-27.816-7.3732-47.544l-0.8323-19.451 1.035-40.701-2.8749-10.06q-0.45855-13.454-4.882-28.929-3.2994-10.376-10.377-10.852l0.30122-15.69-1.9089-7.8089q-6.409 2.0365-7.0667 8.4178-1.5027 0.93659-2.1182 54.944-1.4037 26.447-6.1067 41.648 1.661-1.5219 15.999 13.579l1.6642 18.999q-3.6696 25.692-1.6556 49.654 3.9135 6.7444 6.2838 27.59-3.1809 22.242-5.8928 25.433l-7.0759 5.158q-8.9188 6.4084-20.209 1.6395l-11.126-11.807-7.6454-16.762-1.753-13.647 5.215-46.285-2.6026-21.04q-1.6331-7.027-4.0581-11.344-10.316-13.433-15.791-25.196-3.604-7.4229-4.2894-16.44-1.9613-19.622 7.1528-30.132l-3.0724-13.693q0.97107-2.6633 0.30975-3.8134l-40.633-133.6q-1.4361-6.296 3.0976-31.964-2.9455-23.726-1.8522-28.792l1.615-13.85 4.9889-19.897q0.74245-3.1318 0.33098-6.1271-0.10815-2.0302-3.1383-3.0061-17.059 3.9864-49.736-6.7586-5.3234-1.3418-6.1835-10.967-0.89306-10.482 1.9347-32.028 4.7457-22.569 7.131-47.648l4.76-22.29-6.1987-3.9492q16.543-42.545 28.993-56.083 29.685-21.127 71.161-36.053 0.63587-0.65524 0.35531-2.1294-1.2874-1.026-6.925-17.225-1.2282-3.9408-1.4511-8.5817-3.5492-4.1065-4.5878-11.435-1.6604-6.0661 1.5424-6.6194-4.7862-25.115-2.528-26.907 3.5216-24.879 5.7834-22.925 11.351-14.396 22.397-17.01m0.07375-0.92571q-10.839 2.1911-23.026 17.258-2.8821-0.50004-6.1278 23.959-2.0879 1.7984 2.5553 27.118-3.3489 0.36481-1.4449 6.488 1.2247 7.7343 4.2363 10.275l1.4284 8.4689 7.1804 19.449q-41.422 14.994-71.136 36.12-12.269 12.882-29.431 56.856l6.1728 4.3324q-4.0039 17.421-4.4992 20.971-2.2813 24.218-7.3494 49.079-2.792 21.562-1.7939 32.013 0.6748 9.2142 6.8393 11.239 33.958 10.909 49.228 6.652 2.943 0.56156 3.0249 2.7497 0.23635 3.1155-0.50969 6.0003l-4.7631 18.697-1.6616 13.612q-1.3409 4.4075 1.7639 30.386-4.5785 26.437-3.226 30.461l40.863 135.2-0.35002 3.6194q3.5654 12.02 2.9239 13.891-11.09 12.22-5.5508 38.635 3.6944 13.184 19.183 33.885 2.5427 5.4336 3.5365 10.521l2.5503 19.347q0.49814 6.0059-5.3543 46.483l1.9807 15.07 7.6444 16.765 11.672 12.204q25.976 4.3098 31.145-15.642l3.1921-18.951q-2.5342-18.756-6.4292-26.13l-0.6433-22.79 2.2998-26.863-1.6642-18.999q-15.297-16.557-15.936-13.752 4.6484-15.272 6.0703-41.695 0.57057-54.029 2.1185-54.944 0.66-4.9546 5.5345-7.0248 2.8283 1.1277 1.1853 22.392 7.9926 1.9134 10.454 10.386 5.0958 18.065 4.8795 28.915l2.8918 10.034q0.21288 18.59-0.86732 40.552l0.85262 21.073q3.7348 16.572 7.3371 47.551l0.0526 42.43-7.4867 19.861q-9.0096 35.773-11.093 36.715-2.845 11.372-2.7469 15.924 14.041 3.5114 31.933 2.4672 15.887 7.7256 19.618 5.6107l1.583-13.361-4.7868-10.071 5.1355-17.276 2.1383-15.115-1.6898-8.0887 4.7929-33.147 10.699-49.962 4.7798-41.869-0.58804-17.657-12.006-32.055-2.5039-28.493 0.44033-7.922 8.1524-5.4073q1.0626-12.06 0.303-21.054l-2.4876-6.4796 6.5965-17.42-0.11417-24.347 3.681-61.05-1.3733-20.858q1.4724-14.772-1.1497-48.496l-5.1057-19.541-1.3163-19.121-7.3612-14.629q-0.57458-16.319-0.25802-58.733 1.0781-19.446 5.6521-29.329 4.8968 7.6266 10.186 13.625l2.6666 5.9306 4.2741 40.501q3.9722 8.8058 4.4331 20.084l7.9757 27.456 0.64612 12.932-0.68542 7.4521q-3.5792 2.3896-5.9403 5.1622l-5.4426 15.386 3.3793 5.5193q2.6036 1.6308 10.592-3.8438l5.6356 7.3734q2.5826 8.6136 5.4482 16.498l-2.7417 19.184q5.2305 6.067 6.9596 1.2966-0.43445 6.7962-1.6091 11.318l9.733 5.1594q3.3548-6.1184 6.2001-29.684 1.0053-4.7627-7.157-38.501l2.882-9.6181-2.4274-18.154q2.5622-26.203 2.23-35.088-0.63727-38.148-2.3162-55.139-0.5941-6.5518-2.3733-10.953-7.379-9.8822-10.646-21.233l-2.4269-12.459-4.9764-13.341q-4.1664-26.036-6.0142-29.443l-9.5047-17.068q-1.5301-2.211-7.7744-3.9161l-33.309-7.3232-21.655-9.4565q-11.754-2.7658-15.174-1.3901l-0.39012-4.6739q2.837-6.3136 2.572-10.253 0.8446-11.935-0.46496-15.772 7.9522 8.6678 10.829-22.429 0.2019-5.3635-6.6108-2.976 0.82782-0.65669 1.6126-28.922 0.18792-2.9952-3.8986-9.1704-19.932-22.598-47.055-17.556"/>
 </g>
 <g fill="#050502">
  <path d="m227.42 315.56l6.3588 34.859-0.04268 7.1128-1.7842 1.1271-5.1031-2.8574q-7.9328-2.6433-14.621-4.6384l3.3508-9.6732q4.8486-11.612 7.8714-17.915l3.9552-7.986m0.69114-2.7988q-0.1918-0.00571-0.34901 0.20709l-5.0161 10.122-3.5418 7.7635-4.3921 10.285-3.5403 10.308q0.01166 0.23877 0.29844 0.36432 7.2525 2.17 14.936 4.7328l5.46 3.0072q0.14461 0.0091 0.2716-0.0767l2.1767-1.3937q0.09917-0.06259 0.1572-0.19323l0.0756-7.4779-4.002-21.984 1.4986 6.1169q0.63228 0.60366 0.8136-0.20386l-4.8925-20.042 0.48084-1.0697q0.0287-0.3652-0.39198-0.46528"/>
 </g>
 <g fill="#050502">
  <path d="m300.71 320.58l-6.7105-2.2776q-0.11029-0.13098-0.50522 0.09095l-3.6567 4.5699-0.6742 5.9747q-2.8714 3.5927-11.97 13.871l-5.8456 11.273-5.8138 6.7487q-7.0079-0.21713-14.04 0.28928l-11.837-0.48862-7.6947-1.7489q-0.42425 0.0574-0.42263 0.45548 0.14173 0.38958 0.30088 0.37216l7.6874 1.7618 12.022 0.49432q6.8467-0.48377 14.41-0.34579l6.0487-7.0015 5.8402-11.275q9.0459-10.214 12.076-14l0.67395-5.9755 3.3386-4.1777 0.16553 0.04 6.0229 2.0428 1.3231 5.23-5.6018 13.052q-0.06213 0.41236 0.07743 0.46595 0.12297 0.13187 0.32452 0.13187l6.5491-1.058 8.3026-4.4676 3.6901-0.19382 1.281 5.658-8.0647 5.191-7.0919 7.0938q-0.21618 0.3121 0.06162 0.59424 0.05308 0.14541 0.5203 0.02933l7.493-2.7308 8.0385-4.524 2.7418 0.32889 2.2878 3.0598-9.2121 9.048-10.65 5.4331q-0.1578 0.09788-0.19844 0.26526 0.07291 0.63474 0.51664 0.50934l14.922-6.3427 2.4932 0.89139 0.42298 2.9816-1.5518 2.8617q-5.754 4.0055-20.459 11.38l-6.4997 1.8453q-0.39566 0.13657-0.3252 0.52223-0.03683 0.14745 0.37947 0.32128l6.4032 1.5831 5.5092-0.59163 4.9672-1.7171 4.9568 0.55682 2.3014 1.7719-2.4726 4.5969-6.9442 3.2863-5.4706 0.81962-8.3251 0.13171-5.193 5.1224-9.4033 0.71228q-8.5423-0.97193-16.584-2.5117l-17.723 4.0006-9.6112 1.6938-5.7379-0.0691q-0.47651 0.44526-0.12994 0.70942l6.0694 0.18231 9.6111-1.6938 17.543-3.962q7.6716 1.4817 16.581 2.5054l9.7726-0.753 5.1913-5.1351 7.9615-0.08826 5.6539-0.84096 7.2999-3.4132 2.9024-5.472q-5e-3 -0.16748-0.1313-0.29403l-2.7842-2.0848-5.5024-0.63238-5.1445 1.7828-4.9615 0.52496-4.8702-1.1916 5.0867-1.4617q14.929-7.5073 20.637-11.451l1.8432-3.2778-0.56711-3.9285-3.2504-1.0964-3.9857 1.6832 9.6569-9.5708-2.7528-3.9141-3.4494-0.47538-8.2002 4.6062-5.7448 2.0817 5.6569-5.6433 8.2138-5.1398q0.15195-0.0155 0.21435-0.41834l-1.3541-6.5474q-0.27282-0.3373-0.42584-0.25842l-4.252 0.20214-8.4715 4.5327-5.5355 0.82629 5.374-12.46-1.5162-6.0262"/>
 </g>
 <g fill="#050502">
  <path d="m407.87 454.17q-0.13571-0.13453-0.44345-0.11856l-14.115-0.71667-3.1473 1.0032-6.0618 3.705-12.001-1.0476-15.413 9.403-10.51 3.5207-28.684 3.4633-3.8855-0.5543-8.453 0.86208-13.086 2.4132-22.564 0.63338-13.277-0.51638-20.226-4.2918-9.1427-2.5207q-0.64308 0.18613-0.32402 0.70404l9.1499 2.611 20.404 4.3344 13.259 0.52262 22.91-0.63642 13.059-2.4207 8.1581-0.83746 4.1738 0.53082 28.888-3.5029 10.552-3.5714 15.24-9.309 12.006 1.0495 6.1467-3.7541 3.0025-0.9624q6.5934 0.39882 14.137 0.73724 0.58722-0.20532 0.26685-0.71295"/>
 </g>
 <g fill="#050502">
  <path d="m298.42 522.55q-0.4086 0.0813-0.36731 0.51667l5.3214 15.291 10.264 21.054 7.8036 22.216 6.4879 17.303q0.08579 0.26824 0.46064 0.27 0.41942-0.10533 0.33316-0.5599l-6.5286-17.416-7.7628-22.107-10.264-21.055-5.3195-15.268q-0.13438-0.25435-0.40912-0.24745"/>
 </g>
 <g fill="#050502">
  <path d="m391.33 610.34l-14.926-8.164-10.379-0.89565-17.096-0.86871-6.1044-0.06124-6.2858 4.0415-1.8676 5.4837q-2.4576 6.6338-5.0176 11.88-0.10547 0.2265 0.05365 0.4499 0.31205 0.33846 0.69295-0.05497l2.5633-5.6518q2.8711-6.8884 4.28-11.593l5.7921-3.717 5.8616 0.068 17.096 0.86874 10.136 0.87206 14.551 7.9253 3.297 4.5706-0.37656 8.131-1.9712 5.0655q-0.01662 0.5279 0.4895 0.5071 0.20074-0.03604 0.30713-0.23916l2.0009-5.1216 0.41086-8.4734-3.5-5.0143"/>
 </g>
 <g fill="#050502">
  <path d="m327.21 598.96q-0.05472-0.07367-0.36957 9.8e-4l-5.581 2.1366q-0.24166 0.0636-0.33036 0.27736l-3.8386 9.1936-2.0654 10.393-2.501 7.6975-2.4516 3.5443-21.411 14.76-11.139-1.0972-6.2083-2.0068q-6.044-6.1932-6.9561-7.2292-0.2005-0.1635-0.44926-0.06655-0.435 0.31195-0.11539 0.69655 0.72413 0.8371 7.0235 7.3149l6.5473 2.1243 11.631 1.0931 21.685-14.983 2.6197-3.8031 2.5595-7.8836 2.0415-10.299 3.7237-8.9207 5.6442-2.214q0.3735-0.35213-0.01654-0.7065"/>
 </g>
 <g fill="#050502">
  <path d="m395.3 787.17l-0.13992-0.13077-6.4518-3.6236-12.885-1.6489-8.7097-0.6261-6.9963-0.0372-5.2206 1.4752q-0.41615 0.2292-0.20634 0.6332 0.15844 0.2266 0.45859 0.1725l5.0949-1.439 6.8521 0.0411 8.6365 0.6207 12.718 1.6218 6.3264 3.5625q0.25357 0.11403 0.49277-0.1109 0.18487-0.24987 0.03479-0.50347"/>
 </g>
 <g fill="#050502">
  <path d="m387.76 847.7l-4.8755-3.3957-5.4282-2.2468-2.941-3.623-8.1134-2.2013q-0.07413-0.01895-0.15012-0.01095l-7.1444 0.66559-3.5065 3.3451-5.2058 0.5746-1.7062-0.8508q-0.10088-0.0576-0.24342-0.0476-0.58178 0.2119-0.26093 0.713l1.8983 0.9888q0.11663 0.05446 0.15946 0.05245l5.6494-0.61245q0.10737-0.0033 0.2446-0.12003l3.2745-3.2216 6.8425-0.63845 7.7955 2.0958 2.9242 3.6054 5.4755 2.2612 4.8503 3.352q0.3528 0.0849 0.50626-0.1566 0.16308-0.2634-0.04076-0.5239"/>
 </g>
 <g fill="#050502">
  <path d="m314.01 703.81q-0.40452 0.00141-0.47414 0.35227l-1.9476 13.837-3.183 10.039-7.6008 4.4951-7.881 1.0163-5.9434-2.1441-4.2331-4.5805-3.139-2.1698q-0.2609-0.1539-0.5441 0.12583-0.18356 0.29797 0.05958 0.55903l3.0779 2.1366 4.2762 4.633 6.322 2.2932 8.2919-1.06 7.8904-4.6641 0.13732-0.1332 3.3036-10.388 1.9517-13.898q-0.02034-0.3539-0.2969-0.4346"/>
 </g>
 <g fill="#050502">
  <path d="m313.7 713.52q-0.46436 0.19914-0.32393 0.56624l5.7521 12.91 3.5512 14.897-1.8101 8.0326-5.5061 4.3094-4.0744-0.89-4.5824-2.5826-6.5222 0.18745q-0.16532-0.0037-0.29504 0.1052l-4.2674 4.1203q-5.6241-6.3051-7.2836-8.3124l-2.1857-4.1541-1.987-8.6863q-0.65128-0.61894-0.81913 0.1861l2.024 8.8476 2.2712 4.2966q1.5198 1.8635 7.7847 8.8426 0.35678 0.12574 0.51477-0.07426l4.4561-4.3324 6.1264-0.17954 4.5099 2.5498 4.4672 0.96183q0.19303-0.04793 0.21848-0.09123l5.925-4.6887 1.8979-8.4483-3.5999-15.144-5.7847-12.985q-0.12695-0.2455-0.3877-0.2507"/>
 </g>
 <g fill="#050502">
  <path d="m312.77 711.54q-0.18311 0.03413-0.28568 0.1901-0.09756 0.15617-0.0498 0.34196l0.75922 2.363q0.00994 0.03297 0.02334 0.06167 0.1489 0.2723 0.45248 0.2376 0.18314-0.0338 0.28596-0.18873 0.09804-0.15503 0.05142-0.34143l-0.76093-2.3685q-0.0112-0.03522-0.02142-0.05652-0.14838-0.27365-0.45206-0.23955"/>
 </g>
 <g fill="#050502">
  <path d="m314.45 702.58q-0.25553 0.05525-0.33475 0.30005l-0.54525 2.7124q-0.02226 0.107-0.02158 0.1155-0.0181 0.2091 0.13046 0.3546 0.15384 0.13885 0.36047 0.1088 0.25545-0.055 0.33499-0.299l0.53009-2.6364 0.03687-0.19135q0.01883-0.20915-0.12976-0.35541-0.15378-0.1391-0.36044-0.10937"/>
 </g>
 <g fill="#050502">
  <path d="m280.75 180.4q-0.42832 0.24391-0.17742 0.6626 3.6864 5.0796 8.3082 10.796l7.7111 6.843 4.2306 2.9753q0.02207 0.04781 0.27493 0.08969l4.7071 0.61508 6.981-1.1354 7.3656-3.638 3.4478-1.388 4.9658-4.5088 6.25-11.373 3.7128-4.591q0.18706-0.35564-0.07646-0.57756-0.24026-0.21135-0.58104 0.04817l-3.7563 4.6444-6.1719 11.273-4.8001 4.3644-3.3722 1.3528-7.2858 3.5999-6.6706 1.0716-4.5872-0.59705-4.1049-2.8863-7.6097-6.7477q-4.5621-5.6409-8.2684-10.746-0.1069-0.20401-0.48086-0.15205"/>
 </g>
 <g fill="#050502">
  <path d="m276.57 97.321l15.663-1.224 17.416 0.70034 5.0976-1.1325 8.2442-0.28807 3.9034-0.97511 5.9591 0.65226 1.7196 15.126 2.7176 12.397q0.75437 7.6067 1.2586 23.991-2.0794 6.1892-3.5561 14.217l-5.4405 8.8041-2.6338-0.43424-5.6996-7.4218-4.0065-3.8352q-5.583 0.37018-9.5751 0.3143l-9.3654 2.3543-4.5128-0.39487-5.6124 5.5052-0.72534 6.1654-1.9131 0.66578-5.0792-4.2022-0.8295-6.1286-5.6913-15.48q-0.98612-6.0602-1.772-14.365l0.0257-13.269 1.4719-14.257 2.8926-7.3738m-0.53456-0.8274l-3.196 8.0607-1.4736 14.257-0.03385 13.425q0.81158 8.5364 1.7865 14.521l5.6884 15.482 0.8198 6.3179 5.4893 4.6893 0.3977 0.05796 2.6644-0.97534 0.76945-6.3172 5.1821-5.1036 4.2432 0.40048 9.365-2.358q3.8591 0.04938 9.3066-0.30904l3.5583 3.5079 5.8903 7.6359 3.2917 0.57925q0.35019 9.5e-4 0.3873-0.09938l5.6555-9.2625q1.5226-8.1748 3.612-14.52-0.49832-16.307-1.2677-24.147l-2.7186-12.397-1.7848-15.616q-0.02107-0.11136-0.36076-0.18504l-6.3573-0.70548-4.0354 0.9931-8.244 0.28954-5.0979 1.1272q-7.8388-0.48587-17.283-0.70535l-16.191 1.3104"/>
 </g>
 <g fill="#050502">
  <path d="m320.44 170.49q-0.8041-0.00245-0.02716-9e-5m-0.09772 0.18269q-0.06125 0.07488-0.00632 0.00511m-17.398-4.6265q7.706 0.19658 10.051 0.97153 0.1936 0.00238 0.46788-0.07213 1.6135-0.5535 2.1782-0.62677 0.75822-0.13171 1.2852 0.02324 0.68262 0.18501 1.1814 1.2336 0.32138 0.54125 1.0835 3.508-0.81157 1.7816-4.2861 10.832l-1.2882 0.10425-0.99725-0.85462q0.97955-3.7558-1.3189-6.0317-1.2249-1.3069-4.9114-0.69558-4.9758 0.52454-5.6593 1.8825-0.4089 0.65025-0.19313 1.6546-0.04033 0.28198 1.2417 3.3377 0.20128 0.62464 0.18254 1.1328-0.10727 1.4323-1.5781 1.4708-0.57843-0.00815-0.96689-0.30008l-0.62666-1.177q-0.19063-0.31717-0.4638-0.60796-0.17443-0.27403-2.5936-2.1188-0.42984-0.3689-0.59158-0.64145-0.12903-0.21358-0.17612-0.43476-0.16562-1.6931-0.54948-2.8502-0.18056-0.70175-0.92858-1.8174-0.08285-0.29367 0.00662-0.91973 1.2105-7.3182 9.4277-7.0023m0.02664-0.845q-8.9912-0.27121-10.301 7.8036-0.10356 0.76481 0.03408 1.2187 0.02072 0.23981 0.65146 1.1252 0.1315 0.25185 0.26576 0.65553 0.36787 1.0855 0.5494 2.8456 0.08382 0.37303 0.31743 0.73046 0.23893 0.36104 0.67743 0.73813 2.5719 1.9785 2.5638 2.0865 0.325 0.25227 0.8743 1.5156 0.11017 0.17702 0.2772 0.32889 0.60052 0.49405 1.5276 0.51151 2.0401-0.06261 2.3973-2.0201 0.08965-0.68706-0.14884-1.5237-0.017-0.2116-1.0064-2.5526l-0.2549-0.8162q-0.16504-0.7481 0.0794-1.0899 0.4728-0.93688 4.8218-1.4506 3.4266-0.57997 4.3584 0.36772 1.013 0.84061 1.3455 2.3923 0.11624 0.61267 0.07916 1.2215-0.02588 0.66561-0.3272 2.0131-0.00233 0.17279 0.0673 0.26479l1.4107 1.2117q0.0726 0.06462 0.17367 0.0921l1.8401-0.12736q0.09238 0.00595 0.23703-0.08623 0.1037-0.08012 0.14636-0.20517l2.6464-6.825-0.7677 2.6805q0.0167 0.31369 0.3276 0.41019 0.28273 0.07165 0.47947-0.23609 2.0986-7.0264 2.1712-7.8474 0.07153-0.30896-0.14862-0.54024-0.13596-0.09733-0.23389-0.10087-0.17142-0.0149-0.2966 0.0728l-0.01376-0.02747q-0.53846-2.3664-1.2061-3.3732-0.53938-0.86487-1.3863-1.1304-0.67599-0.20605-1.6075-0.06104-0.26877-0.01292-2.5871 0.69855-2.1516-0.76393-9.9947-0.97115"/>
 </g>
 <g fill="#050502">
  <path d="m344.78 124.88q-0.16864 0.054785-0.25315 0.22322l-2.0858 4.6162-0.81046 3.9178-0.4895 6.9004 0.08685 3.8836q0.01139 0.68775-0.03039 1.2639-0.02939 0.97084-0.83447 5.0542 0.05003 0.50148 0.54858 0.4274 0.22895-0.07869 0.28757-0.31978 0.74911-3.7781 0.82052-4.8478 0.06236-0.64562 0.05429-1.4521l-0.08746-3.9844 0.482-6.8054 0.77323-3.7594 2.0758-4.6051q0.05117-0.25786-0.1164-0.41655-0.187-0.16305-0.4158-0.09781"/>
 </g>
 <g fill="#050502">
  <path d="m269.25 135.14q-0.2594 0.1342-0.2331 0.45005l1.0873 5.9711 1.3053 5.978 0.88653 2.765 0.30969 2.7582-0.1742 1.911 0.00708 0.10642q0.1532 0.44072 0.5915 0.30244 0.19168-0.08935 0.24002-0.3139l0.18393-2.0186-0.32545-2.9007-0.90627-2.8478-1.2871-5.8939-1.0926-5.9935q-0.16063-0.41031-0.58521-0.27735"/>
 </g>
 <g fill="#050502">
  <path d="m277.06 182.53q-0.35228 0.17189-0.30855 0.44049l0.46839 3.181 7.3499 17.513 6.5609 7.9382 9.4587 5.5614q11.581 2.6823 12.835 3.1153 6.2166 0.71226 12.049 1.5775l7.8784-2.3077 6.8475-4.0185 6.2095-7.2178 4.8904-7.6137-0.84323-11.528-1.4129-1.9702-5.1599-4.26-4.7707-2.8722q-0.65575-0.17746-0.5842 0.55011l4.7906 2.9536 5.0877 4.1901 1.2105 1.666 0.84497 11.027-4.6992 7.3081-6.0599 7.0762-6.7471 3.9596-7.6328 2.2186q-5.4716-0.87033-11.624-1.5483-1.323-0.44162-12.71-3.0739l-9.3636-5.4913-6.3082-7.6429-7.2837-17.354-0.46063-3.1067q-0.1295-0.29404-0.42502-0.28476"/>
 </g>
 <g fill="#050502">
  <path d="m232.28 275.97q-0.52447-0.45684-0.77521 0.19592l-0.31263 13.111-8.1493 1.2034-9.4192-3.9026-12.246-2.6118-10.296-3.3625-5.4586-2.2678q-0.64161-0.03671-0.47413 0.62695 0.04611 0.0927 0.1951 0.1689l5.3824 2.243 10.426 3.4064 12.239 2.6147 9.4118 3.9085q0.1765 0.05547 0.2399 0.0303l8.6142-1.2558q0.19986-0.02524 0.31568-0.20984l0.36709-13.294q0.03868-0.50641-0.04495-0.58029"/>
 </g>
 <g fill="#050502">
  <path d="m231.99 289.18q-0.33862 0.05662-0.38258 0.39698l0.06947 9.2746-0.27241 7.9844-3.6451 5.9838q-0.09288 0.23099 0.03729 0.42071 0.14182 0.19184 0.38701 0.17786 0.20012-0.02054 0.31945-0.20004l3.6718-6.0156q0.05777-0.09166 0.06743-0.18428l0.27989-8.1623-0.07016-9.2292q-0.02554-0.43304-0.45855-0.4472"/>
 </g>
 <g fill="#050502">
  <path d="m405.74 292.63q-0.212 0.23474-0.06289 0.52066l3.7523 5.6321q0.28637 0.33252 0.64416 0.06546 0.21381-0.2309 0.06824-0.51944l-3.7585-5.6415q-0.29306-0.32416-0.63748-0.0629"/>
 </g>
 <g fill="#050502">
  <path d="m411.75 259.22q-0.18002-0.00738-0.32865 0.14774l-9.1806 11.627-2.5086 4.9581-2.1945 5.297q-0.11103 0.50817 0.39422 0.58272 0.25865-0.00757 0.38415-0.25354l2.195-5.296 2.4564-4.8533 9.1177-11.54q0.23508-0.53644-0.3273-0.66962"/>
 </g>
 <g fill="#050502">
  <path d="m431.98 251.02q-0.2874-0.03197-0.4272 0.16886l-8.2453 11.968-4.9822 8.1735-6.7477 2.5535-5.0455 1.3744-4.3091-0.31061-2.0953 0.13739q-0.68276 0.33072-0.0463 0.82437l2.1568-0.11389 4.3749 0.31564 5.2266-1.4229 7.025-2.672 5.1728-8.43 8.215-11.924q0.19711-0.45174-0.24829-0.6367"/>
 </g>
 <g fill="#050502">
  <path d="m432.53 250.3q-0.15346 0.00397-0.2724 0.1073l-0.9965 0.99556q-0.04355 0.0446-0.07218 0.09903-0.10379 0.21766 0.01581 0.42033 0.13157 0.1969 0.3681 0.19855 0.15344-0.0042 0.27225-0.10765l0.99649-0.99559q0.04349-0.04465 0.07203-0.09912 0.10284-0.21217-0.01438-0.41726-0.1301-0.19781-0.36658-0.2012"/>
 </g>
 <g fill="#f4c399">
  <path d="m432.34 251.53q1.2337 3.8342 4.6298 11.831 1.1234 9.0108 2.079 11.286 3.0115 10.962 11.059 22.321 1.1858 2.7762 1.9942 9.8341 1.6862 16.931 2.3271 55.123 0.34033 8.8682-2.2333 35.09l2.4332 18.151-2.8843 9.6463q8.1193 33.756 7.1573 38.484 0.04736 6.9351-5.1892 28.624l-9.0853-4.8172q1.0587-1.2621 1.8206-13.124h-0.00445q-1.2492 3.8151-3.1432 3.8151-1.7631 0-4.085-3.3059l2.7665-17.876-5.6467-17.666-5.6171-7.5937-11.16 3.8557-2.3483-4.453 5.1515-15.18q2.3609-2.7752 5.9456-5.1109l0.77277-7.4368-0.84325-14.388-8.035-27.365q-0.01593-9.2611-4.1305-18.744l-4.5396-41.894-1.3313-1.9959h-0.00412q0.03552-0.14718-0.0484-0.3135l-3.7585-5.6415q-0.13098-0.14487-0.27221-0.17283h-0.00407l-7.6018-11.397 2.0037-4.8346 0.2034-0.40186 1.526-0.0806 4.3749 0.31564 5.2266-1.4229 7.025-2.672 5.1728-8.43 8.215-11.924q0.01977-0.04533 0.03307-0.08799h-0.0043l0.04893-0.04888z"/>
 </g>
 <g fill="#f4c399">
  <path d="m343.03 601.19l5.8616 0.068 17.096 0.86874 10.136 0.87206 14.551 7.9253 3.297 4.5706-0.37656 8.131-1.9712 5.0655q-0.01197 0.3808 0.24808 0.47607h-0.0039l-0.33842 7.288 2.5038 28.492 11.987 32.092 0.60184 17.62-4.7883 41.865-6.5607 30.62-0.11456-0.1071-6.4518-3.6236-12.885-1.6489-8.7097-0.6261-6.9963-0.0372-4.739 1.3391 0.00438-2.9692q-3.3976-27.816-7.3732-47.544l-0.8323-19.451 1.035-40.701-2.8749-10.06q-0.45855-13.454-4.882-28.929-3.2046-10.078-9.9738-10.816h-0.0033l2.4808-5.47q2.8711-6.8884 4.28-11.593l5.7921-3.717z"/>
 </g>
 <g fill="#f4c399">
  <path d="m324.07 600.95q-2.2837 2.2335-2.6622 5.9062-1.5027 0.93659-2.1182 54.944-1.4037 26.447-6.1067 41.648 0.15207-0.13936 0.4104-0.13936 0.18637 0 0.42801 0.0725h-0.00314l-0.08731 0.4345h-0.00315q-0.32657 0.0357-0.38847 0.3476l-1.0714 7.6123h-0.00311q-0.05869 0.1237-0.03106 0.265h-0.00312l-0.83884 5.9596-3.183 10.039-7.6008 4.4951-7.881 1.0163-5.9434-2.1441-4.2331-4.5805-1.9632-1.3571h-0.00281q-0.22522-0.4388-0.45773-0.85276-10.316-13.433-15.791-25.196-3.604-7.4229-4.2894-16.44-1.9613-19.622 7.1528-30.132l-3.0724-13.693q0.18743-0.5141 0.31405-0.97175h0.00266q1.6478 1.7422 6.1743 6.3969l6.5473 2.1243 11.631 1.0931 21.685-14.983 2.6197-3.8031 2.5595-7.8836 2.0415-10.299 3.7237-8.9207 2.4414-0.95771z"/>
 </g>
 <g fill="#f4c399">
  <path d="m326.89 94.402l5.9591 0.65226 1.7196 15.126 2.7176 12.397q0.75437 7.6067 1.2586 23.991-2.0794 6.1892-3.5561 14.217l-5.4405 8.8041-2.6338-0.43424-5.6996-7.4218-4.0065-3.8352q-4.8508 0.32163-8.5006 0.32163-0.55092 0-1.0745-0.00733l-9.3654 2.3543-4.5128-0.39487-5.6124 5.5052-0.72534 6.1654-1.9131 0.66578-5.0792-4.2022-0.8295-6.1286-5.6913-15.48q-0.98612-6.0602-1.772-14.365l0.0257-13.269 1.4719-14.257 2.8926-7.3738 0.04378-0.11166 15.663-1.224 17.416 0.70034 5.0976-1.1325 8.2442-0.28807 3.9034-0.97511z"/>
 </g>
 <g fill="#f4c399">
  <path d="m337.82 176.62q-0.03527 2.8715 0.78733 4.7213 0.23864-0.17851 0.57732-0.31157h0.00338l4.1254 2.5435 5.0877 4.1901 1.2105 1.666 0.84497 11.027-4.6992 7.3081-6.0599 7.0762-6.7471 3.9596-7.6328 2.2186q-5.4716-0.87033-11.624-1.5483-1.323-0.44162-12.71-3.0739l-9.3636-5.4913-6.3082-7.6429-7.2837-17.354-0.35673-2.4059h-0.00277q1.6075-0.59454 3.2331-1.1796 0.17352-0.1788 0.27877-0.41859h0.00284q3.453 4.7087 7.6935 9.9534l7.7111 6.843 4.2306 2.9753q0.02207 0.04781 0.27493 0.08969l4.7071 0.61508 6.981-1.1354 7.3656-3.638 3.4478-1.388 4.9658-4.5088 6.25-11.373 3.0063-3.7174z"/>
 </g>
 <g fill="#f4c399">
  <path d="m302.22 166.04q0.328 0 0.66803 0.01308l0.02365 1.2e-4q7.706 0.19658 10.051 0.97153 0.00598 8e-5 0.01205 8e-5 0.19003 0 0.45583-0.07221 1.6135-0.5535 2.1782-0.62677 0.34835-0.06051 0.64794-0.06051 0.35242 0 0.6373 0.08375 0.68262 0.18501 1.1814 1.2336 0.32138 0.54125 1.0835 3.508-0.81157 1.7816-4.2861 10.832l-1.2882 0.10425-0.99725-0.85462q0.97955-3.7558-1.3189-6.0317-0.83453-0.8904-2.8117-0.8904-0.92484 0-2.0997 0.19482-4.9758 0.52454-5.6593 1.8825-0.4089 0.65025-0.19313 1.6546-0.04033 0.28198 1.2417 3.3377 0.20128 0.62464 0.18254 1.1328-0.10727 1.4323-1.5781 1.4708-0.57843-0.00815-0.96689-0.30008l-0.62666-1.177q-0.19063-0.31717-0.4638-0.60796-0.17443-0.27403-2.5936-2.1188-0.42984-0.3689-0.59158-0.64145-0.12903-0.21358-0.17612-0.43476-0.16562-1.6931-0.54948-2.8502-0.18056-0.70175-0.92858-1.8174-0.08285-0.29367 0.00662-0.91973 1.1604-7.0154 8.7597-7.0154z"/>
 </g>
 <g fill="#5c2014">
  <path d="m326.91 93.544l6.3573 0.70548q0.33969 0.073676 0.36076 0.18504l1.7848 15.616 2.7186 12.397q0.76935 7.8401 1.2677 24.147-2.0894 6.3456-3.612 14.52l-5.6555 9.2625q-0.03677 0.0994-0.3808 0.0994-0.00323 0-0.0065-2e-5l-3.2917-0.57925-5.8903-7.6359-3.5583-3.5079q-4.7879 0.31502-8.3487 0.31502-0.49057 0-0.95787-0.00598l-9.365 2.358-4.2432-0.40048-5.1821 5.1036-0.76945 6.3172-2.6644 0.97534-0.3977-0.05796-5.4893-4.6893-0.8198-6.3179-5.6884-15.482q-0.97489-5.9844-1.7865-14.521l0.03385-13.425 1.4736-14.257 3.196-8.0607 0.06314-0.04664 16.191-1.3104q9.444 0.21948 17.283 0.70535l5.0979-1.1272 8.244-0.28954 4.0354-0.9931zm-24.564 71.656q0.28404 0 0.57622 0.00882l0.03894 2.1e-4q7.8431 0.20722 9.9947 0.97115 2.277-0.69878 2.5768-0.69878 0.00546 0 0.01025 2.3e-4 0.38475-0.05989 0.72595-0.05989 0.48477 0 0.88153 0.12093 0.84689 0.26551 1.3863 1.1304 0.66762 1.0068 1.2061 3.3732l0.01376 0.02747q0.10699-0.07497 0.2478-0.07497 0.02393 0 0.0488 0.00217 0.09793 0.00354 0.23389 0.10087 0.22015 0.23128 0.14862 0.54024-0.0726 0.82102-2.1712 7.8474-0.15957 0.24962-0.37573 0.24962-0.05032 0-0.10374-0.01353-0.3109-0.0965-0.3276-0.41019l0.7677-2.6805-2.6464 6.825q-0.04266 0.12505-0.14636 0.20517-0.13588 0.0866-0.22565 0.0866-0.00576 0-0.01138-3.7e-4l-1.8401 0.12736q-0.10107-0.02748-0.17367-0.0921l-1.4107-1.2117q-0.06963-0.092-0.0673-0.26479 0.30132-1.3475 0.3272-2.0131 0.03708-0.60879-0.07916-1.2215-0.33244-1.5517-1.3455-2.3923-0.57808-0.5879-2.1162-0.5879-0.94135 0-2.2422 0.22018-4.349 0.51374-4.8218 1.4506-0.24444 0.34176-0.0794 1.0899l0.2549 0.8162q0.98936 2.341 1.0064 2.5526 0.23849 0.83667 0.14884 1.5237-0.3572 1.9575-2.3973 2.0201-0.92712-0.01746-1.5276-0.51151-0.16703-0.15187-0.2772-0.32889-0.5493-1.2633-0.8743-1.5156 0.00803-0.10798-2.5638-2.0865-0.4385-0.37709-0.67743-0.73813-0.23361-0.35743-0.31743-0.73046-0.18153-1.7601-0.5494-2.8456-0.13426-0.40368-0.26576-0.65553-0.63074-0.88539-0.65146-1.1252-0.13764-0.45391-0.03408-1.2187 1.2675-7.8124 9.7251-7.8124zm2.449-96.461q-4.3175 0-8.9465 0.62545l-0.35412 0.12851q-11.046 2.6138-22.397 17.01-0.1647-0.1423-0.33613-0.1423-2.1822 0-5.4473 23.068-2.2038 1.7483 2.3018 25.712h0.00268q0.15068 0.06793 0.23261 0.27727l1.0926 5.9935 1.2871 5.8939 0.90627 2.8478 0.32545 2.9007-0.18393 2.0186q-0.04834 0.22455-0.24002 0.3139-0.0478 0.01508-0.09223 0.02327h0.00275q0.29718 4.058 1.3894 7.5623 5.6377 16.2 6.925 17.225 0.04764 0.2503 0.06886 0.477h0.0028q3.6717 5.0494 8.1785 10.622l7.6097 6.7477 4.1049 2.8863 4.5872 0.59705 6.6706-1.0716 7.2858-3.5999 3.3722-1.3528 4.8001-4.3644 6.1719-11.273 3.7563-4.6444q0.11864-0.09036 0.22512-0.12364h0.00338q2.9639-6.235 2.5916-14.779 0.4686-4.4682-0.72392-10.934h0.00339q0.32699 0.04642 0.6384 0.08327 0.56356-2.9724 0.58807-3.7817 0.04178-0.57616 0.03039-1.2639l-0.08685-3.8836 0.4895-6.9004 0.81046-3.9178 2.0037-4.4344h0.00345q-0.67557-0.33659-0.25085-1.2444 0.84454-0.66604 1.6-28.927-0.13492-3.2048-3.4718-8.1502-14.226-18.225-37.532-18.225z"/>
 </g>
 <g fill="#f4c399">
  <path d="m350.31 124.66q0.48315 0 0.42363 4.054-1.9568 14.572-4.1343 19.437-0.72983 1.4536-3.8277 1.4536-0.61405 0-1.3211-0.05709h-0.00342q0.5101-2.679 0.56842-3.5524 0.06236-0.64562 0.05429-1.4521l-0.08746-3.9844 0.482-6.8054 0.77323-3.7594 2.0397-4.525h0.00345q0.16037 0.010676 0.34131 0.010676 1.5439 0 4.5841-0.77688 0.05478-0.041964 0.10391-0.041964z"/>
 </g>
 <g fill="#31171a">
  <path d="m393.49 454.16q6.4213 0.38842 13.744 0.71954h-0.00409q0.14236 9.9436-0.56003 15.465l1.4393 22.468-3.685 61.052 0.22614 22.857-6.7316 18.919 2.5113 6.4297q0.76283 8.9942-0.30916 21.053l-7.2183 4.6111 1.524-3.9008 0.41086-8.4734-3.5-5.0143-0.00745-0.0083-14.926-8.164-10.379-0.89565-17.096-0.86871-6.1044-0.06124-6.2858 4.0415-1.8676 5.4837q-2.2412 6.0496-4.5676 10.945l0.27984-14.578-1.7511-7.1634h-0.0033q0.1588-0.148 0.10254-0.4444l-6.5286-17.416-7.7628-22.107-10.264-21.055-5.3195-15.268q-0.13083-0.24762-0.39471-0.24762-0.00715 0-0.01441 1.7e-4l-0.0199 0.0016q-0.4086 0.0813-0.36731 0.51667l5.3214 15.291 10.264 21.054 7.8036 22.216 6.3863 17.032h-0.00327q-0.35128 0.12974-0.68356 0.27394-0.02432-0.00465-0.0567-0.00465-0.09259 0-0.25104 0.0376l-5.581 2.1366q-0.24166 0.0636-0.33036 0.27736l-3.8386 9.1936-2.0654 10.393-2.501 7.6975-2.4516 3.5443-21.411 14.76-11.139-1.0972-6.2083-2.0068q-4.949-5.0713-6.4572-6.6846h-0.00263q0.16409-1.1726-0.21869-1.8383l-40.633-133.6q-1.4228-6.238 3.0145-31.492h0.00227l8.6692 2.4738 20.404 4.3344 13.259 0.52262 22.91-0.63642 13.059-2.4207 8.1581-0.83746 4.1738 0.53082 28.888-3.5029 10.552-3.5714 15.24-9.309 12.006 1.0495 6.1467-3.7541 3.0025-0.9624z"/>
 </g>
 <g fill="#18839f">
  <path d="m342.03 180.64q-1.0187 0-1.7771 0.11824h0.00339l3.6264 2.1833 5.1599 4.26 1.4129 1.9702 0.84323 11.528-4.8904 7.6137-6.2095 7.2178-6.8475 4.0185-7.8784 2.3077q-5.8323-0.86527-12.049-1.5775-1.2539-0.43299-12.835-3.1153l-9.4587-5.5614-6.5609-7.9382-7.3499-17.513-0.34638-2.3524h-0.00278q-38.894 14.484-67.125 34.576-12.45 13.537-28.993 56.083l6.1987 3.9492-0.09434 0.44183 4.2231 1.7545 10.296 3.3625 12.246 2.6118 9.4192 3.9026 8.1493-1.2034 0.31263-13.111q0.14751-0.384 0.38975-0.384 0.16952 0 0.38546 0.18808l0.01477 0.02439q0.08363 0.07388 0.04495 0.58029l-0.34808 12.606q0.0021-3.6e-4 0.00424-7.4e-4l0.00353-3e-4q0.43301 0.01416 0.45855 0.4472l0.07016 9.2292-0.27989 8.1623q-0.00966 0.09262-0.06743 0.18428l-3.6469 5.9748h0.00227q0.00203 0.0358-0.00102 0.0746l-0.48084 1.0697 4.8925 20.042q-0.10376 0.46209-0.35518 0.46209-0.18794 0-0.45842-0.25823l-1.4986-6.1169 4.002 21.984-0.0756 7.4779q-0.05803 0.13064-0.1572 0.19323l-1.5248 0.97627 6.7837 1.5418 11.837 0.48862q4.9216-0.35443 9.8315-0.35443 2.1052 0 4.2083 0.06515l5.8138-6.7487 5.8456-11.273q9.0989-10.279 11.97-13.871l0.6742-5.9747 3.6567-4.5699q0.24836-0.13956 0.38413-0.13956 0.08017 0 0.12109 0.04861l6.7105 2.2776 0.10025 0.06189 1.5162 6.0262-5.374 12.46 5.5355-0.82629 8.4715-4.5327 4.252-0.20214q0.02899-0.01496 0.06232-0.01496 0.14242 0 0.36352 0.27338l1.3541 6.5474q-0.0624 0.40284-0.21435 0.41834l-8.2138 5.1398-5.6569 5.6433 5.7448-2.0817 8.2002-4.6062 3.4494 0.47538 2.7528 3.9141-9.6569 9.5708 3.9857-1.6832 3.2504 1.0964 0.56711 3.9285-1.8432 3.2778q-5.7077 3.9437-20.637 11.451l-5.0867 1.4617 4.8702 1.1916 4.9615-0.52496 5.1445-1.7828 5.5024 0.63238 2.7842 2.0848q0.1263 0.12655 0.1313 0.29403l-2.9024 5.472-7.2999 3.4132-5.6539 0.84096-7.9615 0.08826-5.1913 5.1351-9.7726 0.753q-8.9096-1.0237-16.581-2.5054l-17.543 3.962-9.6111 1.6938-3.5583-0.10687h-0.0023q1.1635 0.84817 1.2298 2.0922 0.41147 2.9954-0.33098 6.1271l-4.9889 19.897-1.615 13.85q-1.086 5.0323 1.8133 28.478h0.00227l8.9419 2.4653 20.226 4.2918 13.277 0.51638 22.564-0.63338 13.086-2.4132 8.453-0.86208 3.8855 0.5543 28.684-3.4633 10.51-3.5207 15.413-9.403 12.001 1.0476 6.0618-3.705 3.1473-1.0032 13.901 0.70583q-0.21282-12.119-1.6347-30.567l-5.1057-19.541-1.3372-19.061-7.3393-14.693q-0.56873-16.315-0.27637-58.742 1.119-20.28 5.9995-29.944h4e-3q-0.01477-0.10537 0.01511-0.24214l2.1945-5.297 0.12771-0.25238h4e-3q-0.26296-0.35408 0.26604-0.61032l0.04005-0.00263 2.0708-4.0928 9.1806-11.627q0.14188-0.14807 0.31235-0.14807 0.00812 0 0.0163 3.3e-4l0.00772 2.2e-4q0.56238 0.13318 0.3273 0.66962l-9.1177 11.54-1.8188 3.5936 1.0766-0.07059 4.3091 0.31061 5.0455-1.3744 6.7477-2.5535 4.9822-8.1735 7.836-11.374h0.00433q-0.02951-0.13784 0.03937-0.28228 0.02863-0.05443 0.07218-0.09903l0.79037-0.78964h0.00433q-0.33365-1.1511-0.40445-1.7962-4.1488-26.072-6.0318-29.394l-9.6056-16.9-40.488-10.647-21.637-9.445q-7.901-1.7892-11.864-1.7892z"/>
 </g>
 <g fill="#050502">
  <path d="m269.22 135.84q-0.17313 0.00677-0.29014 0.12236l-1.7805 1.9091q-0.02035 0.02199-0.04205 0.05502-0.12582 0.20734-0.01373 0.43288 0.12961 0.214 0.37631 0.21754 0.1731-0.00648 0.29027-0.12185l1.7768-1.9051q0.02592-0.02797 0.04585-0.05896 0.12619-0.2071 0.01445-0.43284-0.12926-0.21419-0.37596-0.21816"/>
 </g>
 <g fill="#050502">
  <path d="m228.9 398.19l-2.1263 0.14768q-0.07988 0.00751-0.14547 0.03928-0.28153 0.15698-0.23116 0.47317 0.03267 0.14246 0.14571 0.23621 0.11509 0.09207 0.26132 0.09494l2.1321-0.14772q0.07982-0.00762 0.14524-0.0394 0.28122-0.15703 0.23076-0.4732-0.03275-0.14245-0.14591-0.23617-0.11531-0.0921-0.26172-0.09476"/>
 </g>
 <g fill="#050502">
  <path d="m331.37 836.13q-0.3329-0.1451-0.7399 0.33764-0.16772 0.16656-1.3291 2.062l-1.3405 1.7195q-0.10112 0.1093-0.25165 0.2067-0.82977 0.42737-0.90797 0.5193l-1.4543 1.244q-1.0627 0.632-2.5799 1.222l-1.0251 0.6957q-1.1203 0.45004-2.2987 0.8278l-0.86458 0.4276q-0.16817 0.08026-1.0969 0.16547l-0.44364 0.11763q-0.50976 0.0184-0.8266 0.11106-0.19144 0.05594-0.32291 0.13074-0.55555 0.4297-0.56671 0.36566-0.23151 0.04274-0.70526 0.07504-1.0063-9e-3 -1.2989 0.039-0.3522 0.03025-1.2009 0.29185-0.16032 0.03521-0.33166 0.04245l-1.2943-0.06925q-0.18735 0.00575-0.34818 0.02875-0.55102 0.1375-0.61981 0.1058l-1.309-0.1809q-0.32779-0.0304-1.7147 0.0168l-1.1744-0.094-0.71106 0.00856q-0.52218 0.10084-0.91455 0.07064l-1.2187-0.225q-0.37282-0.0798-0.6861-0.22064l-0.16426-0.00756q-0.66304 0.34124-0.10284 0.8066 0.312 0.1416 0.67184 0.22434 1.3693 0.29956 1.4351 0.26496 0.14419 0.01183 0.42758 0.00414 0.47131-0.09948 1.2047-0.0816l1.2301 0.09486q1.416-0.04634 1.6554-0.0191l1.3684 0.1832 0.26522-0.01244q0.52798-0.13656 0.7662-0.1236l1.2926 0.06874q0.22971-0.0118 0.44355-0.0581 0.90613-0.26985 1.0957-0.2759 0.16836-0.0438 1.2954-0.0397 0.53943-0.0373 0.80099-0.0882 0.20749-0.0447 0.34836-0.12026l0.60397-0.39004q0.1626-0.0613 0.72773-0.09043l0.4838-0.12457q0.52993-0.0455 0.8106-0.0951 0.19495-0.0289 0.43555-0.11395l0.82467-0.41211q1.2269-0.39464 2.3752-0.86074l1.065-0.714q1.3581-0.5365 2.3062-1.0475 0.26511-0.14216 0.50232-0.33327l1.3738-1.181 1.0252-0.6036q0.0774 0.07144 1.5056-1.8384l1.3068-2.0415q0.109-0.18953 0.38714-0.39485 0.20036-0.37205-0.18354-0.61765"/>
 </g>
 <g fill="#050502">
  <path d="m388.35 848.25q-0.0253-0.02166-0.04648-0.0353l-1.6032-1.0459q-0.06616-0.0432-0.14929-0.0598-0.31186-0.0385-0.4595 0.2304-0.11964 0.2815 0.10119 0.50235 0.02341 0.02038 0.05027 0.03785l1.6034 1.0458q0.0689 0.04306 0.1452 0.0576 0.3118 0.0391 0.45998-0.2297 0.12002-0.28137-0.10048-0.5024"/>
 </g>
 <g fill="#050502">
  <path d="m366.25 837.07l7.7955 2.0958 2.9242 3.6054 5.4755 2.2612 3.6098 2.4947h-0.00385q0.00235 0.16554 0.14318 0.30635 0.02341 0.02038 0.05027 0.03785l1.6034 1.0458q0.00747 0.00466 0.015 9e-3h-0.00387l-1.9665 13.9-5.1605 17.229 4.7803 10.187-1.1357 12.39q-0.40834 0.56284-1.653 0.56284-4.1192 0-17.399-6.1643-3.9916 0.12754-7.7152 0.12754-13.389 0-23.313-1.6493-0.6537-3.2162 2.8239-16.725l3.4487-8.4288 7.6614-28.256 0.45954-1.2131 1.3888 0.72343q0.11248 0.0525 0.15631 0.0525 0.00161 0 0.00315-5e-5l5.6494-0.61245q0.10737-0.0033 0.2446-0.12003l3.2745-3.2216 6.8425-0.63845z"/>
 </g>
 <g fill="#050502">
  <path d="m314.81 703.73q3.6257 1.9818 14.37 13.298l1.6642 18.999q-3.6696 25.692-1.6556 49.654 3.9135 6.7444 6.2838 27.59-2.4558 17.172-4.6321 22.988h-0.00328q-0.10059 0.08296-0.20612 0.20814-0.16772 0.16656-1.3291 2.062l-0.6815 0.87413-5.1456 3.7509h-0.00323q-0.33885 0.14445-0.70398 0.28645l-1.0251 0.6957q-1.1203 0.45004-2.2987 0.8278l-0.86458 0.4276q-0.16817 0.08026-1.0969 0.16547l-0.44364 0.11763q-0.50976 0.0184-0.8266 0.11106-0.19144 0.05594-0.32291 0.13074-0.48349 0.37396-0.55465 0.37396-0.01063 0-0.01206-0.0083-0.23151 0.04274-0.70526 0.07504-0.15854-0.0014-0.29938-0.0014-0.75302 0-0.99948 0.0404-0.3522 0.03025-1.2009 0.29185-0.16032 0.03521-0.33166 0.04245l-1.2943-0.06925q-0.18735 0.00575-0.34818 0.02875-0.44769 0.11176-0.57707 0.11176-0.02983 0-0.04274-0.00596l-1.309-0.1809q-0.12848-0.01194-0.41971-0.01194-0.45173 0-1.295 0.02874l-1.1744-0.094-0.17676 0.00215q-1.4074-0.42749-2.8536-1.0384l-11.126-11.807-7.6454-16.762-1.753-13.647 5.215-46.285-1.8577-15.018 0.24517 1.0717 2.2712 4.2966q1.5198 1.8635 7.7847 8.8426 0.13773 0.04854 0.24583 0.04854 0.17193 0 0.26894-0.1228l4.4561-4.3324 6.1264-0.17954 4.5099 2.5498 4.4672 0.96183q0.19303-0.04793 0.21848-0.09123l5.925-4.6887 1.8979-8.4483-3.5999-15.144-5.7847-12.985q-0.1221-0.2361-0.36798-0.24995h-0.00314l-0.49533-1.5418 0.81622-5.8121h-0.00314q0.19992-0.06974 0.26861-0.2805l0.4318-2.1475z"/>
 </g>
 <g fill="#9c9c68">
  <path d="m360.24 781.94l6.8521 0.0411 8.6365 0.6207 12.718 1.6218 6.3264 3.5625q0.0853 0.03833 0.16898 0.03833 0.09556 0 0.18896-0.05h0.00397l-4.0068 18.701-4.7875 33.152 1.6849 8.0837-0.04092 0.28936-0.11862-0.0774h-0.00391q-0.02084-0.11-0.10652-0.2195l-0.00447-0.00473-4.8755-3.3957-5.4282-2.2468-2.941-3.623-8.1134-2.2013q-0.0521-0.01333-0.10514-0.01333-0.0224 0-0.04498 0.00238l-7.1444 0.66559-3.5065 3.3451-5.2058 0.5746-1.4053-0.7008 6.3327-16.717 0.05935-40.074 4.8669-1.3746z"/>
 </g>
 <g fill="#9c9c68">
  <path d="m313.02 713.89l0.17423 0.54229q0.00994 0.03297 0.02334 0.06167 0.13205 0.2415 0.3858 0.2415 0.0286 0 0.05875-0.00306h0.00313l5.462 12.259 3.5512 14.897-1.8101 8.0326-5.5061 4.3094-4.0744-0.89-4.5824-2.5826-6.5222 0.18745q-0.00537-1.3e-4 -0.01072-1.3e-4 -0.15882 0-0.28432 0.10533l-4.2674 4.1203q-5.6241-6.3051-7.2836-8.3124l-2.1857-4.1541-1.987-8.6863q-0.18045-0.1715-0.32379-0.2337h-0.00287q-1.0288-3.8559-2.3284-6.7853h0.00281l0.68725 0.47705 4.2762 4.633 6.322 2.2932 8.2919-1.06 7.8904-4.6641 0.13732-0.1332 3.3036-10.388 0.59918-4.2666z"/>
 </g>
 <g fill="#f4c399">
  <path d="m186.67 279.69l-4.4865 21.01q-2.3852 25.079-7.131 47.648-2.8277 21.546-1.9347 32.028 0.86011 9.6248 6.1835 10.967 13.454 4.4239 24.26 6.3506 1.3879-1.6124 2.7114-3.4374 0.64084-0.88364 1.2822-1.7837l-8.7e-4 -2e-5q0.64911-0.71228 1.266-1.4255 1.2699-1.468 2.8164-3.065 1.5466-1.597 3.0931-3.194 1.5466-1.597 2.6913-3.4785 1.1448-1.8815 1.8877-4.0475 0.74295-2.166 1.6224-4.3281 0.87941-2.1622 2.0431-4.7265 1.1637-2.5642 2.1834-4.8592 1.0197-2.2949 1.6375-4.8744 0.18515-0.77295 0.3577-1.534h0.00227l-0.6688-0.36835q-7.6839-2.5628-14.936-4.7328-0.28678-0.12555-0.29844-0.36432l3.5403-10.308 4.3921-10.285 3.5418-7.7635 4.9911-10.072h0.00229q-0.01031-0.1066 0.03682-0.22382l3.6451-5.9838 0.27241-7.9844-0.06567-8.7668-8.5744 1.25q-0.01979 0.00787-0.0506 0.00787-0.0679 0-0.1893-0.03817l-9.4118-3.9085-12.239-2.6147-10.426-3.4064-4.0471-1.6866z"/>
 </g>
 <g fill="#f4c399">
  <path d="m293.94 319.19l0.16553 0.04 6.0229 2.0428 1.3231 5.23-5.6018 13.052q-0.06213 0.41236 0.07743 0.46595 0.12297 0.13187 0.32452 0.13187l6.5491-1.058 8.3026-4.4676 3.6901-0.19382 1.281 5.658-8.0647 5.191-7.0919 7.0938q-0.21618 0.3121 0.06162 0.59424 0.02951 0.08086 0.18708 0.08086 0.1258 0 0.33322-0.05153l7.493-2.7308 8.0385-4.524 2.7418 0.32889 2.2878 3.0598-9.2121 9.048-10.65 5.4331q-0.1578 0.09788-0.19844 0.26526 0.06089 0.53002 0.38031 0.53002 0.06311 0 0.13633-0.02068l14.922-6.3427 2.4932 0.89139 0.42298 2.9816-1.5518 2.8617q-5.754 4.0055-20.459 11.38l-6.4997 1.8453q-0.39566 0.13657-0.3252 0.52223-0.03683 0.14745 0.37947 0.32128l6.4032 1.5831 5.5092-0.59163 4.9672-1.7171 4.9568 0.55682 2.3014 1.7719-2.4726 4.5969-6.9442 3.2863-5.4706 0.81962-8.3251 0.13171-5.193 5.1224-9.4033 0.71228q-8.5423-0.97193-16.584-2.5117l-17.723 4.0006-9.6112 1.6938-4.8613-0.05854h-0.00229q-0.19505-0.07232-0.40401-0.13961-0.23705 0.05539-0.47714 0.10795h-0.00229l-1.7843 0.12392q-0.07988 0.00751-0.14547 0.03928-0.16631 0.09274-0.2168 0.24102h-0.00226q-3.5737 0.56656-7.748 0.56656-6.7618 0-15.1-1.4866h-7e-5q1.3879-1.6124 2.7114-3.4374 0.64084-0.88364 1.2822-1.7837l-8.7e-4 -2e-5q0.64911-0.71228 1.266-1.4255 1.2699-1.468 2.8164-3.065 1.5466-1.597 3.0931-3.194 1.5466-1.597 2.6913-3.4785 1.1448-1.8815 1.8877-4.0475 0.74295-2.166 1.6224-4.3281 0.87941-2.1622 2.0431-4.7265 1.1637-2.5642 2.1834-4.8592 1.0197-2.2949 1.6375-4.8744 0.18515-0.77295 0.3577-1.534h0.00227l4.3933 2.4197h-0.00231q0.13131 0.34637 0.27745 0.34637 0.00677 0 0.01359-7.3e-4l7.6874 1.7618 12.022 0.49432q5.3274-0.3764 11.088-0.3764 1.6431 0 3.3214 0.03061l6.0487-7.0015 5.8402-11.275q9.0459-10.214 12.076-14l0.67395-5.9755 3.3386-4.1777z"/>
 </g>
 <g fill="#f4c399">
  <path d="m269.25 136.86l0.85752 4.7094 1.3053 5.978 0.88653 2.765 0.30969 2.7582-0.08179 0.89711q-3.2472-4.0531-4.2328-11.009-0.80028-2.9238-0.47078-4.5668h-0.0027l1.4291-1.5323z"/>
 </g>
</svg>
