<?xml version="1.0" encoding="UTF-8"?>
<svg version="1.1" viewBox="0 0 2000 3000" xmlns="http://www.w3.org/2000/svg">
 <g transform="translate(0 1947.6)">
  <g transform="matrix(3.1027 0 0 3.1027 -120.34 -2025.4)">
   <g transform="matrix(-.93803 .34656 .34656 .93803 378.23 -148.51)" fill="#006680">
    <rect x="125.5" y="683.36" width="146.5" height="308"/>
    <path transform="matrix(-.81572 0 0 -1 526.44 1796)" d="m487 801.36-87.32 51.41-87.31 51.42-0.87-101.33-0.87-101.32 88.19 49.91z"/>
    <g transform="matrix(-1 0 0 1 396.27 .46248)">
     <rect x="125.5" y="683.36" width="146.5" height="308"/>
     <path transform="matrix(-.81572 0 0 -1 526.44 1796)" d="m487 801.36-87.32 51.41-87.31 51.42-0.87-101.33-0.87-101.32 88.19 49.91z"/>
    </g>
   </g>
   <path d="m509.19 600.89c1.1447 0.12035 120.68 318.85 120.68 318.85" fill="none" stroke="#e6e6e6" stroke-dasharray="12.04254404, 12.04254404" stroke-width="4.0142"/>
   <path d="m392.16 645.53c1.1225 0.11966 118.34 317 118.34 317" fill="none" stroke="#e6e6e6" stroke-dasharray="11.89011719, 11.89011719" stroke-width="3.9634"/>
  </g>
  <g transform="matrix(3.2787 0 0 3.1027 -187.33 -2025.4)">
   <g transform="matrix(.93803 .34656 -.34656 .93803 362.41 -149.57)" fill="#006680">
    <rect x="125.5" y="683.36" width="146.5" height="308"/>
    <path transform="matrix(-.81572 0 0 -1 526.44 1796)" d="m487 801.36-87.32 51.41-87.31 51.42-0.87-101.33-0.87-101.32 88.19 49.91z"/>
    <g transform="matrix(-1 0 0 1 396.27 .46248)">
     <rect x="125.5" y="683.36" width="146.5" height="308"/>
     <path transform="matrix(-.81572 0 0 -1 526.44 1796)" d="m487 801.36-87.32 51.41-87.31 51.42-0.87-101.33-0.87-101.32 88.19 49.91z"/>
    </g>
   </g>
   <path d="m230.48 602.21c-1.1411 0.12015-120.3 318.3-120.3 318.3" fill="none" stroke="#e6e6e6" stroke-dasharray="12.01255416, 12.01255416" stroke-width="4.0042"/>
   <path d="m346.55 649.48c-1.0917 0.11743-115.1 311.1-115.1 311.1" fill="none" stroke="#e6e6e6" stroke-dasharray="11.61631294, 11.61631294" stroke-width="3.8721"/>
  </g>
  <g transform="matrix(3.1027 0 0 3.1027 -120.34 -1761.7)" fill="#f55">
   <path transform="matrix(1.3227 0 0 1.3301 -219.46 -163.74)" d="m649 321.86c0 112.94-91.558 204.5-204.5 204.5s-204.5-91.558-204.5-204.5 91.558-204.5 204.5-204.5 204.5 91.558 204.5 204.5z"/>
   <g transform="translate(191,-89)">
    <path d="m85 283.36c0 55.228-44.995 100-100.5 100s-100.5-44.772-100.5-100 44.995-100 100.5-100 100.5 44.772 100.5 100z" fill="#f55"/>
   </g>
   <g transform="translate(187.5,39)">
    <path d="m85 283.36c0 55.228-44.995 100-100.5 100s-100.5-44.772-100.5-100 44.995-100 100.5-100 100.5 44.772 100.5 100z" fill="#f55"/>
   </g>
   <g transform="translate(268.5,-189)">
    <path d="m85 283.36c0 55.228-44.995 100-100.5 100s-100.5-44.772-100.5-100 44.995-100 100.5-100 100.5 44.772 100.5 100z" fill="#f55"/>
   </g>
   <g transform="translate(388.5,-223)">
    <path d="m85 283.36c0 55.228-44.995 100-100.5 100s-100.5-44.772-100.5-100 44.995-100 100.5-100 100.5 44.772 100.5 100z" fill="#f55"/>
   </g>
   <g transform="translate(506.5,-182)">
    <path d="m85 283.36c0 55.228-44.995 100-100.5 100s-100.5-44.772-100.5-100 44.995-100 100.5-100 100.5 44.772 100.5 100z" fill="#f55"/>
   </g>
   <g transform="translate(578.5,-78)">
    <path d="m85 283.36c0 55.228-44.995 100-100.5 100s-100.5-44.772-100.5-100 44.995-100 100.5-100 100.5 44.772 100.5 100z" fill="#f55"/>
   </g>
   <g transform="translate(576.5,47)">
    <path d="m85 283.36c0 55.228-44.995 100-100.5 100s-100.5-44.772-100.5-100 44.995-100 100.5-100 100.5 44.772 100.5 100z" fill="#f55"/>
   </g>
   <g transform="translate(499.5,149)">
    <path d="m85 283.36c0 55.228-44.995 100-100.5 100s-100.5-44.772-100.5-100 44.995-100 100.5-100 100.5 44.772 100.5 100z" fill="#f55"/>
   </g>
   <g transform="translate(378.5,185)">
    <path d="m85 283.36c0 55.228-44.995 100-100.5 100s-100.5-44.772-100.5-100 44.995-100 100.5-100 100.5 44.772 100.5 100z" fill="#f55"/>
   </g>
   <g transform="translate(259.5,143)">
    <path d="m85 283.36c0 55.228-44.995 100-100.5 100s-100.5-44.772-100.5-100 44.995-100 100.5-100 100.5 44.772 100.5 100z" fill="#f55"/>
   </g>
  </g>
  <path transform="matrix(4.9913 0 0 4.9913 -678.43 -2690.5)" d="m491 348.86c0 82.567-66.933 149.5-149.5 149.5s-149.5-66.933-149.5-149.5 66.933-149.5 149.5-149.5 149.5 66.933 149.5 149.5z" fill="#e6e6e6"/>
  <path transform="matrix(4.8149 0 0 4.8149 -618.19 -2632)" d="m491 348.86c0 82.567-66.933 149.5-149.5 149.5s-149.5-66.933-149.5-149.5 66.933-149.5 149.5-149.5 149.5 66.933 149.5 149.5z" fill="#f55"/>
  <path transform="matrix(4.6074 0 0 4.6074 -547.31 -2562.7)" d="m491 348.86c0 82.567-66.933 149.5-149.5 149.5s-149.5-66.933-149.5-149.5 66.933-149.5 149.5-149.5 149.5 66.933 149.5 149.5z" fill="#f55"/>
  <path transform="matrix(4.3065 0 0 4.3065 -444.54 -2457.7)" d="m491 348.86c0 82.567-66.933 149.5-149.5 149.5s-149.5-66.933-149.5-149.5 66.933-149.5 149.5-149.5 149.5 66.933 149.5 149.5z" fill="#e6e6e6"/>
  <path transform="matrix(4.2234 0 0 4.2338 -414.64 -2432.4)" d="m491 348.86c0 82.567-66.933 149.5-149.5 149.5s-149.5-66.933-149.5-149.5 66.933-149.5 149.5-149.5 149.5 66.933 149.5 149.5z" fill="#f55"/>
  <rect x="363.68" y="-1288.9" width="1321.8" height="670.19" ry="161.77" fill="#f55"/>
  <rect x="931.48" y="-1636.4" width="198.57" height="1362.1" fill="#f55"/>
  <path transform="matrix(2.3442 0 0 2.2078 259.59 -2242.6)" d="m349 329.36-20.139-10.796-20.31 10.47 4.0443-22.489-16.233-16.081l22.64-3.1 10.28-20.41 9.947 20.571 22.585 3.4682-16.491 15.817z" fill="#e6e6e6"/>
  <path transform="matrix(2.3442 0 0 2.2078 256.22 -979.14)" d="m349 329.36-20.139-10.796-20.31 10.47 4.0443-22.489-16.233-16.081l22.64-3.1 10.28-20.41 9.947 20.571 22.585 3.4682-16.491 15.817z" fill="#e6e6e6"/>
 </g>
</svg>
