<?xml version="1.0" encoding="utf-8"?>
<!-- Generator: Adobe Illustrator 18.1.1, SVG Export Plug-In . SVG Version: 6.00 Build 0)  -->
<svg version="1.1" id="Layer_1" xmlns="http://www.w3.org/2000/svg" xmlns:xlink="http://www.w3.org/1999/xlink" x="0px" y="0px"
	 viewBox="0 0 3000 3000" enable-background="new 0 0 3000 3000" xml:space="preserve">
<g>
	<g>
		<g>
			<polygon fill="#BA2328" points="1105.5,2926.6 971.9,2571 671.8,2744.2 1210.4,1343.9 1471.5,1453.7 			"/>
			<polygon fill="#AE2026" points="971.9,2571 1338.3,1397.7 1471.5,1453.7 1105.5,2926.6 			"/>
		</g>
		<g>
			<polygon fill="#BA2328" points="2328.2,2744.2 2028.1,2571 1894.5,2926.6 1528.5,1453.7 1789.6,1343.9 			"/>
			<polygon fill="#AE2026" points="2028.1,2571 1661.7,1397.7 1528.5,1453.7 1894.5,2926.6 			"/>
		</g>
	</g>
	<path fill="#D9282C" d="M2381.1,954.5c0-98-73-178.8-167.6-191.2c75.7-58,98.6-164.6,49.6-249.4c-47.6-82.4-146.7-116.4-233-84.8
		c32.4-86.1-0.7-185.5-82.7-233.8c-87-51.3-197.9-26.4-255.2,54.6c-8.2-98.9-91.1-176.6-192.1-176.6c-98,0-178.8,73-191.2,167.6
		c-58-75.7-164.6-98.6-249.4-49.6c-84.8,49-118.4,152.7-81.8,240.8c-88.1-36.6-191.8-3.1-240.8,81.8c-49,84.8-26.2,191.4,49.6,249.4
		c-94.6,12.3-167.6,93.2-167.6,191.2s73,178.8,167.6,191.2c-75.7,58-98.6,164.6-49.6,249.4c49,84.8,152.7,118.4,240.8,81.8
		c-36.6,88.1-3.1,191.8,81.8,240.8c84.8,49,191.4,26.2,249.4-49.6c12.3,94.6,93.2,167.6,191.2,167.6c98,0,178.8-73,191.2-167.6
		c58,75.7,164.6,98.6,249.4,49.6c84.8-49,118.4-152.7,81.8-240.8c88.1,36.6,191.8,3.1,240.8-81.8s26.2-191.4-49.6-249.4
		C2308.1,1133.3,2381.1,1052.4,2381.1,954.5z"/>
	<circle fill="#A41F24" cx="1500" cy="954.5" r="598.7"/>
	<g>
		<path fill="none" stroke="#DA8F27" stroke-width="40" stroke-linecap="round" stroke-miterlimit="10" d="M1349.3,729.2
			c0,0-220.1-79.8-119.6,117.7s163.8,196.7,163.8,196.7"/>
		<path fill="none" stroke="#DA8F27" stroke-width="40" stroke-linecap="round" stroke-miterlimit="10" d="M1650.7,729.2
			c0,0,220.1-79.8,119.6,117.7s-163.8,196.7-163.8,196.7"/>
		<path fill="#FEC773" d="M1680.2,845.2c0,128-34.1,240.2-85.4,303.1c-27.5,33.7-60,53.2-94.8,53.2s-67.3-19.5-94.8-53.2
			c-51.3-62.8-85.4-175.1-85.4-303.1c0-54.1,6.1-105.3,17-151.2h326.4C1674.1,739.9,1680.2,791.2,1680.2,845.2z"/>
		<path fill="#E8AB4D" d="M1680.2,1228.8c0,14.3-6.1,27.9-17,40.1h-326.4c-10.9-12.2-17-25.8-17-40.1c0-34,34.1-63.8,85.4-80.5
			c27.5-8.9,60-14.1,94.8-14.1s67.3,5.2,94.8,14.1C1646.1,1165,1680.2,1194.8,1680.2,1228.8z"/>
		<path opacity="0.15" d="M1680.2,1228.8c0,14.3-6.1,27.9-17,40.1H1500V694.1h163.2c10.9,45.9,17,97.1,17,151.2
			c0,128-34.1,240.2-85.4,303.1C1646.1,1165,1680.2,1194.8,1680.2,1228.8z"/>
	</g>
</g>
</svg>
